<svg xmlns="http://www.w3.org/2000/svg" xmlns:xlink="http://www.w3.org/1999/xlink" width="15" height="16" viewBox="0 0 15 16">
    <defs>
        <path id="a" d="M0 0h15v15.75H0z"/>
    </defs>
    <g fill="none" fill-rule="evenodd">
        <mask id="b" fill="#fff">
            <use xlink:href="#a"/>
        </mask>
        <path fill="#FE5000" d="M14.333 12.022c.411.414.64.961.64 1.545 0 .583-.229 1.13-.64 1.544a2.178 2.178 0 0 1-1.545.639A2.178 2.178 0 0 1 10.68 13l-6.57-3.558-.08.089a2.351 2.351 0 0 1-1.67.691c-.632 0-1.224-.247-1.671-.691-.92-.92-.92-2.42 0-3.34A2.344 2.344 0 0 1 2.36 5.5c.631 0 1.226.244 1.67.692.028.027.053.058.081.089l6.587-3.57A2.182 2.182 0 0 1 14.358.64c.414.414.642.961.642 1.544 0 .584-.228 1.13-.642 1.545a2.173 2.173 0 0 1-1.542.639 2.174 2.174 0 0 1-1.546-.64l-.039-.04-6.59 3.569a2.322 2.322 0 0 1 0 1.208l6.59 3.572a2.18 2.18 0 0 1 1.556-.653 2.18 2.18 0 0 1 1.546.64" mask="url(#b)"/>
    </g>
</svg>
